<?xml version="1.0" encoding="UTF-8" standalone="no"?>
<svg
   xmlns:dc="http://purl.org/dc/elements/1.1/"
   xmlns:cc="http://creativecommons.org/ns#"
   xmlns:rdf="http://www.w3.org/1999/02/22-rdf-syntax-ns#"
   xmlns:svg="http://www.w3.org/2000/svg"
   xmlns="http://www.w3.org/2000/svg"
   xmlns:sodipodi="http://sodipodi.sourceforge.net/DTD/sodipodi-0.dtd"
   xmlns:inkscape="http://www.inkscape.org/namespaces/inkscape"
   version="1.1"
   width="26.08256"
   height="54.441204"
   id="svg77"
   viewBox="0 0 26.082559 54.441203"
   sodipodi:docname="Logo-universidade.svg"
   inkscape:version="0.92.4 (unknown)">
  <metadata
     id="metadata83">
    <rdf:RDF>
      <cc:Work
         rdf:about="">
        <dc:format>image/svg+xml</dc:format>
        <dc:type
           rdf:resource="http://purl.org/dc/dcmitype/StillImage" />
        <dc:title></dc:title>
      </cc:Work>
    </rdf:RDF>
  </metadata>
  <defs
     id="defs81" />
  <sodipodi:namedview
     pagecolor="#ffffff"
     bordercolor="#666666"
     borderopacity="1"
     objecttolerance="10"
     gridtolerance="10"
     guidetolerance="10"
     inkscape:pageopacity="0"
     inkscape:pageshadow="2"
     inkscape:window-width="1920"
     inkscape:window-height="1005"
     id="namedview79"
     showgrid="false"
     fit-margin-top="0"
     fit-margin-left="0"
     fit-margin-right="0"
     fit-margin-bottom="0"
     inkscape:zoom="1.5857392"
     inkscape:cx="-87.234302"
     inkscape:cy="-12.261104"
     inkscape:window-x="0"
     inkscape:window-y="40"
     inkscape:window-maximized="1"
     inkscape:current-layer="svg77" />
  <g
     id="Layer1000"
     transform="matrix(0.19946041,0,0,0.19946041,-46.325678,-56.741241)">
    <path
       d="m 255.6057,553.4345 c 0,-1.1528 0.1437,-2.4848 1.2934,-2.4848 0.97,0 1.2932,1.4519 1.2932,2.4848 0,1.0327 -0.3232,2.4846 -1.2932,2.4846 -1.1497,0 -1.2934,-1.332 -1.2934,-2.4846 z m 2.5866,-2.8891 h -0.0238 v 0 c -0.3354,-0.6287 -0.9819,-1.0927 -1.6047,-1.0927 -1.8683,0 -2.8143,1.961 -2.8143,3.9818 0,1.931 0.8263,3.9816 2.5867,3.9816 0.7784,0 1.449,-0.404 1.8442,-1.2872 v 0 h 0.0241 v 0 c 0,0.3591 0.0238,0.7035 0.0479,1.0627 v 0 h 1.7963 v 0 c -0.0241,-0.4941 -0.0601,-1.0029 -0.0601,-1.497 v 0 -9.3104 h -1.7963 z"
       style="fill:#1b1918;fill-rule:evenodd"
       id="path2"
       inkscape:connector-curvature="0" />
    <path
       d="m 267.6186,554.0332 c 0,-0.4941 0,-0.9731 -0.0479,-1.4369 -0.0479,-0.479 -0.1318,-0.9283 -0.2993,-1.3473 -0.5032,-1.3173 -1.4372,-1.7963 -2.5628,-1.7963 -1.8323,0 -2.8863,1.7365 -2.8863,3.9966 0,2.5149 0.8263,3.9668 2.8863,3.9668 1.4011,0 2.5628,-0.6137 2.7184,-2.4699 v 0 h -1.6166 v 0 c -0.1678,0.6886 -0.4791,0.9729 -1.1018,0.9729 -0.9221,0 -1.0299,-0.9131 -1.0299,-1.8859 v 0 z m -3.9399,-1.497 c 0.0239,-0.8232 0.2036,-1.5865 1.0299,-1.5865 0.8742,0 1.0539,0.7633 1.0539,1.5865 v 0 z"
       style="fill:#1b1918;fill-rule:evenodd"
       id="path4"
       inkscape:connector-curvature="0" />
    <path
       d="m 277.4072,557.4161 c 2.8622,0 4.1556,-2.4398 4.1556,-5.6282 0,-3.1884 -1.2934,-5.6285 -4.1556,-5.6285 -2.8624,0 -4.1556,2.4401 -4.1556,5.6285 0,3.1884 1.2932,5.6282 4.1556,5.6282 z m 0,-9.58 c 1.8323,0 2.1796,2.0956 2.1796,3.9518 0,1.8561 -0.3473,3.9518 -2.1796,3.9518 -1.8323,0 -2.1795,-2.0957 -2.1795,-3.9518 0,-1.8562 0.3472,-3.9518 2.1795,-3.9518 z"
       style="fill:#1b1918;fill-rule:evenodd"
       id="path6"
       inkscape:connector-curvature="0" />
    <path
       d="m 287.564,557.1916 h 1.7966 v 0 c -0.036,-0.449 -0.0601,-0.8981 -0.072,-1.3471 v 0 -6.1673 h -1.7963 v 4.5057 0 c -0.0241,1.0927 -0.515,1.7362 -1.0777,1.7362 -0.8864,0 -1.0658,-0.9278 -1.0777,-1.7362 v 0 -4.5057 h -1.7966 v 4.8798 0 c 0,0.2546 0.024,0.7336 0.1199,1.1977 0.2154,1.0927 1.377,1.6614 1.9757,1.6614 0.9102,0 1.4732,-0.4641 1.8564,-1.1526 v 0 z"
       style="fill:#1b1918;fill-rule:evenodd"
       id="path8"
       inkscape:connector-curvature="0" />
    <path
       d="m 291.4815,549.6772 c 0.0241,0.5539 0.0598,1.1826 0.0598,1.497 v 0 l 0.0122,6.0174 h 1.7841 v -3.7273 0 c 0.0122,-0.4938 0.0479,-0.9131 0.2396,-1.3323 0.1797,-0.3141 0.5748,-0.5238 0.8745,-0.5536 v 0 h 0.7783 v -1.9911 0 c -0.8983,-0.0297 -1.6647,0.2696 -2.048,1.4522 v 0 h -0.0238 l -0.036,-1.3623 z"
       style="fill:#1b1918;fill-rule:evenodd"
       id="path10"
       inkscape:connector-curvature="0" />
    <path
       d="m 303.0389,553.4345 c 0,-2.3652 -1.1735,-3.9818 -3.1376,-3.9818 -1.9639,0 -3.1377,1.6166 -3.1377,3.9818 0,2.365 1.1738,3.9816 3.1377,3.9816 1.9641,0 3.1376,-1.6166 3.1376,-3.9816 z m -4.4189,0 c 0,-1.1976 0.1797,-2.4848 1.2813,-2.4848 1.1018,0 1.2815,1.2872 1.2815,2.4848 0,1.1974 -0.1797,2.4846 -1.2815,2.4846 -1.1016,0 -1.2813,-1.2872 -1.2813,-2.4846 z"
       style="fill:#1b1918;fill-rule:evenodd"
       id="path12"
       inkscape:connector-curvature="0" />
    <path
       d="m 310.9595,557.1916 v -4.1613 h 1.3533 v 0 c 1.9278,-0.0748 2.9936,-1.3623 2.9936,-3.3231 0,-2.7394 -1.6166,-3.3083 -3.5328,-3.323 v 0 h -2.6705 v 10.8074 z m 0,-9.0114 c 1.0298,0.0601 2.3712,-0.3889 2.3712,1.527 0,1.916 -1.3414,1.467 -2.3712,1.5268 v 0 z"
       style="fill:#1b1918;fill-rule:evenodd"
       id="path14"
       inkscape:connector-curvature="0" />
    <path
       d="m 317.0086,549.6772 c 0.0238,0.5539 0.0598,1.1826 0.0598,1.497 v 0 l 0.0119,6.0174 h 1.7845 v -3.7273 0 c 0.0119,-0.4938 0.0479,-0.9131 0.2395,-1.3323 0.1794,-0.3141 0.5748,-0.5238 0.8742,-0.5536 v 0 h 0.7784 v -1.9911 0 c -0.8983,-0.0297 -1.6648,0.2696 -2.0478,1.4522 v 0 h -0.0241 l -0.036,-1.3623 z"
       style="fill:#1b1918;fill-rule:evenodd"
       id="path16"
       inkscape:connector-curvature="0" />
    <path
       d="m 328.0629,554.0332 c 0,-0.4941 0,-0.9731 -0.0479,-1.4369 -0.0479,-0.479 -0.1318,-0.9283 -0.2993,-1.3473 -0.5032,-1.3173 -1.4372,-1.7963 -2.5628,-1.7963 -1.8324,0 -2.8863,1.7365 -2.8863,3.9966 0,2.5149 0.8263,3.9668 2.8863,3.9668 1.4011,0 2.5628,-0.6137 2.7184,-2.4699 v 0 h -1.6166 v 0 c -0.1678,0.6886 -0.4791,0.9729 -1.1018,0.9729 -0.9222,0 -1.0299,-0.9131 -1.0299,-1.8859 v 0 z m -3.9399,-1.497 c 0.0238,-0.8232 0.2036,-1.5865 1.0299,-1.5865 0.8742,0 1.0539,0.7633 1.0539,1.5865 v 0 z"
       style="fill:#1b1918;fill-rule:evenodd"
       id="path18"
       inkscape:connector-curvature="0" />
    <path
       d="m 329.1659,549.6772 v 1.497 h 1.2095 v 3.6972 0 c 0,1.6316 0.2993,2.5447 1.7005,2.5447 0.2517,0 1.2095,-0.1046 1.4131,-0.2245 v 0 -1.3173 0 c -0.1914,0.015 -0.383,0.0448 -0.5746,0.0448 -0.6228,0 -0.7427,-0.2693 -0.7427,-1.2572 v 0 -3.4877 h 1.3533 v -1.497 h -1.3533 v -2.2901 l -1.7963,0.8081 v 1.482 z"
       style="fill:#1b1918;fill-rule:evenodd"
       id="path20"
       inkscape:connector-curvature="0" />
    <path
       d="m 341.346,553.4345 c 0,-2.3652 -1.1735,-3.9818 -3.1376,-3.9818 -1.9639,0 -3.1374,1.6166 -3.1374,3.9818 0,2.365 1.1735,3.9816 3.1374,3.9816 1.9641,0 3.1376,-1.6166 3.1376,-3.9816 z m -4.4189,0 c 0,-1.1976 0.1797,-2.4848 1.2813,-2.4848 1.1018,0 1.2815,1.2872 1.2815,2.4848 0,1.1974 -0.1797,2.4846 -1.2815,2.4846 -1.1016,0 -1.2813,-1.2872 -1.2813,-2.4846 z"
       style="fill:#1b1918;fill-rule:evenodd"
       id="path22"
       inkscape:connector-curvature="0" />
    <path
       d="m 237.8957,529.6241 v 5.868 0 c 0,1.826 -0.072,3.4877 -1.8922,3.4877 -1.8204,0 -1.8921,-1.6617 -1.8921,-3.4877 v 0 -5.868 h -1.8564 v 6.766 0 c 0,2.874 1.6526,4.2661 3.7485,4.2661 2.0957,0 3.7483,-1.3921 3.7483,-4.2661 v 0 -6.766 z"
       style="fill:#1b1918;fill-rule:evenodd"
       id="path24"
       inkscape:connector-curvature="0" />
    <path
       d="m 243.6097,532.9174 h -1.7844 v 7.5143 h 1.7963 v -4.5207 0 c 0.0238,-1.0927 0.5148,-1.7212 1.0778,-1.7212 0.8861,0 1.0658,0.9131 1.0777,1.7212 v 0 4.5207 h 1.7963 v -4.8948 0 c 0,-0.2546 -0.0238,-0.7334 -0.1196,-1.1974 -0.2157,-1.0928 -1.3771,-1.6466 -1.976,-1.6466 -0.9102,0 -1.4729,0.449 -1.8443,1.1375 v 0 l -0.0238,-0.0448 z"
       style="fill:#1b1918;fill-rule:evenodd"
       id="path26"
       inkscape:connector-curvature="0" />
    <path
       d="m 249.3714,532.9174 v 7.5143 h 1.7963 v -7.5143 z m -0.0601,-3.2933 v 1.9312 h 1.9163 v -1.9312 z"
       style="fill:#1b1918;fill-rule:evenodd"
       id="path28"
       inkscape:connector-curvature="0" />
    <path
       d="m 254.7972,540.4317 h 1.9642 l 2.1792,-7.5143 h -1.7124 l -1.3771,5.0893 h -0.024 l -1.3414,-5.0893 h -1.904 z"
       style="fill:#1b1918;fill-rule:evenodd"
       id="path30"
       inkscape:connector-curvature="0" />
    <path
       d="m 265.7563,537.2734 c 0,-0.4941 0,-0.9732 -0.048,-1.4372 -0.0479,-0.4788 -0.1318,-0.9281 -0.2996,-1.347 -0.5028,-1.3173 -1.4369,-1.7963 -2.5625,-1.7963 -1.8323,0 -2.8862,1.7362 -2.8862,3.9965 0,2.5149 0.8263,3.9668 2.8862,3.9668 1.4009,0 2.5625,-0.6137 2.7184,-2.4698 v 0 h -1.6169 v 0 c -0.1675,0.6885 -0.479,0.9731 -1.1015,0.9731 -0.9224,0 -1.0301,-0.9133 -1.0301,-1.8861 v 0 z m -3.9402,-1.497 c 0.0241,-0.8232 0.2035,-1.5866 1.0301,-1.5866 0.8742,0 1.0536,0.7634 1.0536,1.5866 v 0 z"
       style="fill:#1b1918;fill-rule:evenodd"
       id="path32"
       inkscape:connector-curvature="0" />
    <path
       d="m 267.482,532.9174 c 0.0238,0.5538 0.0598,1.1826 0.0598,1.4969 v 0 l 0.0119,6.0174 h 1.7844 v -3.7273 0 c 0.0119,-0.494 0.0479,-0.913 0.2395,-1.332 0.1798,-0.3146 0.5749,-0.5241 0.8742,-0.5541 v 0 h 0.7784 v -1.9908 0 c -0.898,-0.0298 -1.6645,0.2696 -2.0477,1.4519 v 0 h -0.0241 l -0.036,-1.362 z"
       style="fill:#1b1918;fill-rule:evenodd"
       id="path34"
       inkscape:connector-curvature="0" />
    <path
       d="m 277.662,534.9231 c -0.0836,-1.6616 -1.1616,-2.2302 -2.4309,-2.2302 -1.054,0 -2.5748,0.6885 -2.5748,2.2603 0,1.7512 1.0659,2.0656 2.2156,2.41 0.3592,0.1046 1.2215,0.3592 1.2215,0.9578 0,0.584 -0.3714,0.8385 -0.8623,0.8385 -0.527,0 -0.946,-0.3294 -0.982,-0.9133 v 0 h -1.6645 v 0 c 0.0238,1.7215 1.2453,2.41 2.6465,2.41 1.1137,0 2.7184,-0.8232 2.7184,-2.4698 0,-2.814 -3.437,-2.1404 -3.437,-3.3231 0,-0.494 0.2276,-0.6735 0.7186,-0.6735 0.407,0 0.7905,0.2245 0.8143,0.7333 v 0 z"
       style="fill:#1b1918;fill-rule:evenodd"
       id="path36"
       inkscape:connector-curvature="0" />
    <path
       d="m 279.6055,532.9174 v 7.5143 h 1.7963 v -7.5143 z m -0.0598,-3.2933 v 1.9312 h 1.9159 v -1.9312 z"
       style="fill:#1b1918;fill-rule:evenodd"
       id="path38"
       inkscape:connector-curvature="0" />
    <path
       d="m 285.1152,536.6744 c 0,-1.1526 0.1437,-2.4846 1.2934,-2.4846 0.97,0 1.2932,1.4519 1.2932,2.4846 0,1.0329 -0.3232,2.4851 -1.2932,2.4851 -1.1497,0 -1.2934,-1.3325 -1.2934,-2.4851 z m 2.5866,-2.8888 h -0.0238 v 0 c -0.3354,-0.6287 -0.9822,-1.0927 -1.6047,-1.0927 -1.8683,0 -2.8142,1.9607 -2.8142,3.9815 0,1.9312 0.8263,3.9818 2.5866,3.9818 0.7784,0 1.449,-0.4042 1.8442,-1.2872 v 0 h 0.0241 v 0 c 0,0.3592 0.0238,0.7036 0.0479,1.0627 v 0 h 1.7963 v 0 c -0.0241,-0.4938 -0.0601,-1.0029 -0.0601,-1.497 v 0 -9.3106 h -1.7963 z"
       style="fill:#1b1918;fill-rule:evenodd"
       id="path40"
       inkscape:connector-curvature="0" />
    <path
       d="m 294.9486,536.8992 c 0,0.883 -0.036,2.2603 -1.0299,2.2603 -0.5031,0 -0.8742,-0.4493 -0.8742,-1.078 0,-1.2124 1.2813,-1.1973 1.9041,-1.1823 z m -1.6288,-1.8564 c -0.0238,-0.3442 0.1797,-1.0775 0.8025,-1.0775 0.6346,0 0.8263,0.6137 0.8263,0.9278 v 0 0.7036 0 c -0.7186,-0.0298 -1.6288,0.015 -2.3474,0.4042 -1.0896,0.5839 -1.2813,1.8561 -1.2813,2.3802 0,1.4667 0.8382,2.2751 1.9639,2.2751 0.8144,0 1.4371,-0.3591 1.8442,-1.2274 v 0 h 0.0241 v 0 c 0,0.3144 0.0238,0.6585 0.0598,1.0029 v 0 h 1.6169 v 0 c -0.0241,-0.2245 -0.072,-0.449 -0.0839,-0.8232 v 0 -4.1014 0 c 0,-2.2604 -1.3533,-2.8142 -2.5628,-2.8142 -0.6466,0 -1.2813,0.1196 -1.7725,0.479 -0.4791,0.3441 -0.8022,0.9281 -0.8144,1.8709 v 0 z"
       style="fill:#1b1918;fill-rule:evenodd"
       id="path42"
       inkscape:connector-curvature="0" />
    <path
       d="m 300.3151,536.6744 c 0,-1.1526 0.1437,-2.4846 1.2932,-2.4846 0.97,0 1.2934,1.4519 1.2934,2.4846 0,1.0329 -0.3234,2.4851 -1.2934,2.4851 -1.1495,0 -1.2932,-1.3325 -1.2932,-2.4851 z m 2.5866,-2.8888 h -0.0241 v 0 c -0.3353,-0.6287 -0.9819,-1.0927 -1.6047,-1.0927 -1.868,0 -2.8142,1.9607 -2.8142,3.9815 0,1.9312 0.8263,3.9818 2.5869,3.9818 0.7784,0 1.4488,-0.4042 1.8442,-1.2872 v 0 h 0.0238 v 0 c 0,0.3592 0.0241,0.7036 0.0479,1.0627 v 0 h 1.7964 v 0 c -0.0239,-0.4938 -0.0599,-1.0029 -0.0599,-1.497 v 0 -9.3106 h -1.7963 z"
       style="fill:#1b1918;fill-rule:evenodd"
       id="path44"
       inkscape:connector-curvature="0" />
    <path
       d="m 312.3278,537.2734 c 0,-0.4941 0,-0.9732 -0.0479,-1.4372 -0.0476,-0.4788 -0.1316,-0.9281 -0.2994,-1.347 -0.5028,-1.3173 -1.4368,-1.7963 -2.5628,-1.7963 -1.8323,0 -2.8859,1.7362 -2.8859,3.9965 0,2.5149 0.8263,3.9668 2.8859,3.9668 1.4012,0 2.5628,-0.6137 2.7185,-2.4698 v 0 h -1.6166 v 0 c -0.1676,0.6885 -0.4791,0.9731 -1.1019,0.9731 -0.9221,0 -1.0298,-0.9133 -1.0298,-1.8861 v 0 z m -3.9399,-1.497 c 0.0238,-0.8232 0.2035,-1.5866 1.0298,-1.5866 0.8742,0 1.054,0.7634 1.054,1.5866 v 0 z"
       style="fill:#1b1918;fill-rule:evenodd"
       id="path46"
       inkscape:connector-curvature="0" />
    <path
       d="m 320.1403,540.4317 v -4.6105 h 3.4731 v -1.7961 h -3.4731 v -2.6047 h 3.7245 v -1.7963 h -5.5806 v 10.8076 z"
       style="fill:#1b1918;fill-rule:evenodd"
       id="path48"
       inkscape:connector-curvature="0" />
    <path
       d="m 331.1473,537.2734 c 0,-0.4941 0,-0.9732 -0.0479,-1.4372 -0.0479,-0.4788 -0.1318,-0.9281 -0.2994,-1.347 -0.5031,-1.3173 -1.4371,-1.7963 -2.5628,-1.7963 -1.8323,0 -2.8862,1.7362 -2.8862,3.9965 0,2.5149 0.8263,3.9668 2.8862,3.9668 1.4012,0 2.5628,-0.6137 2.7185,-2.4698 v 0 h -1.6166 v 0 c -0.1679,0.6885 -0.4791,0.9731 -1.1019,0.9731 -0.9221,0 -1.0298,-0.9133 -1.0298,-1.8861 v 0 z m -3.9399,-1.497 c 0.0238,-0.8232 0.2035,-1.5866 1.0298,-1.5866 0.8742,0 1.0539,0.7634 1.0539,1.5866 v 0 z"
       style="fill:#1b1918;fill-rule:evenodd"
       id="path50"
       inkscape:connector-curvature="0" />
    <path
       d="m 334.5735,536.6744 c 0,-1.1526 0.1437,-2.4846 1.2935,-2.4846 0.97,0 1.2934,1.4519 1.2934,2.4846 0,1.0329 -0.3234,2.4851 -1.2934,2.4851 -1.1498,0 -1.2935,-1.3325 -1.2935,-2.4851 z m 2.5869,-2.8888 h -0.0241 v 0 c -0.3353,-0.6287 -0.9819,-1.0927 -1.6047,-1.0927 -1.8683,0 -2.8142,1.9607 -2.8142,3.9815 0,1.9312 0.8263,3.9818 2.5866,3.9818 0.7784,0 1.4491,-0.4042 1.8442,-1.2872 v 0 h 0.0241 v 0 c 0,0.3592 0.0238,0.7036 0.0479,1.0627 v 0 h 1.7963 v 0 c -0.0238,-0.4938 -0.0598,-1.0029 -0.0598,-1.497 v 0 -9.3106 h -1.7963 z"
       style="fill:#1b1918;fill-rule:evenodd"
       id="path52"
       inkscape:connector-curvature="0" />
    <path
       d="m 346.5865,537.2734 c 0,-0.4941 0,-0.9732 -0.0479,-1.4372 -0.048,-0.4788 -0.1319,-0.9281 -0.2994,-1.347 -0.5029,-1.3173 -1.4372,-1.7963 -2.5628,-1.7963 -1.8323,0 -2.8859,1.7362 -2.8859,3.9965 0,2.5149 0.8263,3.9668 2.8859,3.9668 1.4012,0 2.5628,-0.6137 2.7184,-2.4698 v 0 h -1.6166 v 0 c -0.1678,0.6885 -0.479,0.9731 -1.1018,0.9731 -0.9221,0 -1.0298,-0.9133 -1.0298,-1.8861 v 0 z m -3.9399,-1.497 c 0.0238,-0.8232 0.2035,-1.5866 1.0298,-1.5866 0.8742,0 1.0539,0.7634 1.0539,1.5866 v 0 z"
       style="fill:#1b1918;fill-rule:evenodd"
       id="path54"
       inkscape:connector-curvature="0" />
    <path
       d="m 348.3122,532.9174 c 0.0241,0.5538 0.0598,1.1826 0.0598,1.4969 v 0 l 0.0122,6.0174 h 1.7844 v -3.7273 0 c 0.0119,-0.494 0.0479,-0.913 0.2395,-1.332 0.1795,-0.3146 0.5746,-0.5241 0.8742,-0.5541 v 0 h 0.7784 v -1.9908 0 c -0.8983,-0.0298 -1.6648,0.2696 -2.048,1.4519 v 0 h -0.0238 l -0.036,-1.362 z"
       style="fill:#1b1918;fill-rule:evenodd"
       id="path56"
       inkscape:connector-curvature="0" />
    <path
       d="m 357.1872,536.8992 c 0,0.883 -0.036,2.2603 -1.0298,2.2603 -0.5032,0 -0.8743,-0.4493 -0.8743,-1.078 0,-1.2124 1.2813,-1.1973 1.9041,-1.1823 z m -1.6288,-1.8564 c -0.0238,-0.3442 0.1797,-1.0775 0.8025,-1.0775 0.6347,0 0.8263,0.6137 0.8263,0.9278 v 0 0.7036 0 c -0.7186,-0.0298 -1.6288,0.015 -2.3474,0.4042 -1.0896,0.5839 -1.2812,1.8561 -1.2812,2.3802 0,1.4667 0.8382,2.2751 1.9638,2.2751 0.8144,0 1.4372,-0.3591 1.8445,-1.2274 v 0 h 0.0238 v 0 c 0,0.3144 0.0241,0.6585 0.0598,1.0029 v 0 h 1.6169 v 0 c -0.0241,-0.2245 -0.072,-0.449 -0.0839,-0.8232 v 0 -4.1014 0 c 0,-2.2604 -1.3533,-2.8142 -2.5628,-2.8142 -0.6466,0 -1.2813,0.1196 -1.7725,0.479 -0.4788,0.3441 -0.8022,0.9281 -0.8141,1.8709 v 0 z"
       style="fill:#1b1918;fill-rule:evenodd"
       id="path58"
       inkscape:connector-curvature="0" />
    <path
       d="m 361.2243,529.6241 v 10.8076 h 1.7963 v -10.8076 z"
       style="fill:#1b1918;fill-rule:evenodd"
       id="path60"
       inkscape:connector-curvature="0" />
    <path
       d="m 247.4303,520.9274 h 100.2699 v -56.096 H 247.4303 Z"
       style="fill:#aa0331;fill-rule:evenodd"
       id="path62"
       inkscape:connector-curvature="0" />
    <path
       d="M 247.4303,284.4737 H 347.7002 V 456.7258 H 247.4303 Z"
       style="fill:#727a7f;fill-rule:evenodd"
       id="path64"
       inkscape:connector-curvature="0" />
    <path
       d="m 301.4169,432.3382 c 0,0 -2.2592,-6.2226 -2.103,-0.2863 0,0 1.7155,8.0824 -0.1562,10.7274 0,0 0.1562,4.5051 4.2869,4.2191 0,0 -0.3121,-2.5019 0.7798,-3.0742 0,0 2.571,-1.9346 -1.2475,-7.6535 v 0 z m -7.7034,0 c 0,0 2.2592,-6.2226 2.103,-0.2863 0,0 -1.7155,8.0824 0.1562,10.7274 0,0 -0.1562,4.5051 -4.2868,4.2191 0,0 0.3121,-2.5019 -0.7798,-3.0742 0,0 -2.571,-1.9346 1.2478,-7.6535 v 0 z m 18.4193,-5.7093 c -0.2016,4.7495 0.8739,5.3487 4.858,9.3665 0,0 2.3037,2.5841 -1.9168,0.9051 0,0 -2.1487,3.0705 1.4343,3.509 0,0 4.3801,1.4624 -0.6375,3.5799 0,0 -5.2591,2.5563 -7.2485,-0.2925 v 0 l 0.1593,-2.1932 v 0 c 0,0 -4.3798,-4.0039 -3.9016,-10.8708 0.005,-0.9559 3.1048,-3.0847 3.4237,2.1035 0,0 1.0554,2.7054 1.8233,-2.3048 0,0 1.3654,-5.6239 2.0058,-3.8027 z m -29.1351,0 c 0.2015,4.7495 -0.8739,5.3487 -4.858,9.3665 0,0 -2.3037,2.5841 1.9168,0.9051 0,0 2.1486,3.0705 -1.4344,3.509 0,0 -4.3798,1.4624 0.6376,3.5799 0,0 5.2591,2.5563 7.2484,-0.2925 v 0 l -0.1593,-2.1932 v 0 c 0,0 4.3798,-4.0039 3.9019,-10.8708 -0.005,-0.9559 -3.1051,-3.0847 -3.4237,2.1035 0,0 -1.0556,2.7054 -1.8235,-2.3048 0,0 -1.3655,-5.6239 -2.0058,-3.8027 z m 23.2418,-27.428 -2.719,-0.7778 v 0 c 2.0478,-1.5676 3.3509,-3.9266 3.3509,-6.5648 0,-4.7146 -4.1616,-8.5371 -9.2977,-8.5459 -5.1539,0.008 -9.3146,3.8307 -9.3146,8.5459 0,2.6382 1.3031,4.9972 3.3508,6.5648 v 0 l -2.719,0.7778 v 0 c -1.9406,-1.9304 -3.1257,-4.5097 -3.1257,-7.3426 0,-5.978 5.2784,-10.8249 11.7915,-10.834 6.5319,0.007 11.8086,4.8549 11.8086,10.834 0,2.8329 -1.1852,5.4122 -3.1258,7.3426 z m -15.1313,-7.1839 c 0,-3.2717 2.891,-5.9241 6.457,-5.9241 3.566,0 6.4571,2.6524 6.4571,5.9241 0,3.2718 -2.8911,5.9239 -6.4571,5.9239 -3.566,0 -6.457,-2.6521 -6.457,-5.9239 z m 6.4375,33.321 c 0,0 -4.0689,4.5859 -4.2387,-0.4666 0,0 -0.5085,-4.9776 -3.6422,-2.0222 0,0 -1.5259,2.7247 -1.5259,3.8886 0,0 -3.642,0.3112 -4.3203,-4.7415 0,0 -6.694,-16.4827 4.4901,-18.4244 0,0 9.7722,1.2444 -1.2421,15.0024 12.2329,-9.3374 5.5624,-17.4107 2.7677,-17.4107 0,0 7.7114,-3.3083 6.211,5.8405 v 0 l -1.4582,6.9744 v 0 c 0,0 -0.9116,2.5086 0.4156,4.1292 v 0 l 2.543,2.7998 2.582,-2.7998 v 0 c 1.3272,-1.6206 0.4159,-4.1292 0.4159,-4.1292 v 0 l -1.4584,-6.9744 v 0 c -1.5004,-9.1488 6.2107,-5.8405 6.2107,-5.8405 -2.7944,0 -9.4649,8.0733 2.7683,17.4107 -11.0146,-13.758 -1.2422,-15.0024 -1.2422,-15.0024 11.1839,1.9417 4.4898,18.4244 4.4898,18.4244 -0.678,5.0527 -4.3202,4.7415 -4.3202,4.7415 0,-1.1639 -1.5259,-3.8886 -1.5259,-3.8886 -3.1337,-2.9554 -3.6423,2.0222 -3.6423,2.0222 -0.1698,5.0525 -4.2777,0.4666 -4.2777,0.4666 z m 0.0391,-71.7854 c 0,0 -4.646,3.3976 -1.785,15.6546 0,0 1.6659,3.166 1.785,6.8159 0.119,-3.6499 1.7458,-6.8159 1.7458,-6.8159 2.8611,-12.257 -1.7458,-15.6546 -1.7458,-15.6546 z m 0.0394,-2.698 c 5.4388,2.3567 4.1964,12.5645 4.1964,12.5645 3.1099,-7.3119 7.1541,-8.4719 7.1541,-10.0553 0,0 1.7878,-3.1824 -0.5409,-5.1327 0,0 -1.1792,-1.3646 -2.4638,0.186 0,0 -1.3312,2.9429 -1.6016,3.5631 v 0 l -1.711,0.0621 v 0 c 0,0 0.6083,-2.0126 1.2169,-2.757 0,0 0.7736,-3.501 -0.8113,-4.0592 0,0 -1.0443,-1.5162 -2.3964,0.4343 0,0 -2.1163,0.1239 -3.0929,-1.3646 -0.9765,1.4885 -3.1099,1.3646 -3.1099,1.3646 -1.3521,-1.9505 -2.3964,-0.4343 -2.3964,-0.4343 -1.5848,0.5582 -0.8112,4.0592 -0.8112,4.0592 0.6086,0.7444 1.2172,2.757 1.2172,2.757 v 0 l -1.7113,-0.0621 v 0 c -0.2704,-0.6202 -1.6016,-3.5631 -1.6016,-3.5631 -1.2847,-1.5506 -2.4639,-0.186 -2.4639,-0.186 -2.3286,1.9503 -0.5408,5.1327 -0.5408,5.1327 0,1.5834 4.0442,2.7434 7.1541,10.0553 0,0 -1.124,-10.2078 4.3143,-12.5645 z m 28.514,50.7764 c 0,0 2.3737,4.2296 -4.9986,5.0074 0,0 6.0978,6.1056 12.4528,-1.8221 0,0 0.8476,5.4442 -3.9815,6.7638 -2.3151,1.0017 -7.033,-0.1557 -10.6753,-0.9332 0,0 2.3738,1.1639 1.1869,8.5496 0,0 -1.1869,7.3054 -1.3564,10.3362 v 0 l -1.6242,-0.803 v 0 c 0,0 2.0616,-14.673 0.7928,-16.1479 0,0 -1.5219,-6.832 -5.0493,-6.832 1.7044,1.4215 3.6184,5.7449 0.9751,14.3081 0,0 -2.1603,13.3883 7.6181,14.1407 0,0 2.9642,-2.8747 4.6596,0.1556 0,0 0.5907,2.0973 1.9468,2.2527 0,0 6.747,10.021 -12.6221,12.905 v 0 l -0.1695,-1.2442 -4.3206,0.4666 v -0.9331 0 c 0,0 -3.5603,-0.853 -3.3908,2.3329 0,0 -6.2674,0.3112 -7.6238,-0.4666 0,0 -0.9785,-1.6248 -2.3734,-0.737 -1.3949,-0.8878 -2.4126,0.737 -2.4126,0.737 -1.3564,0.7778 -7.6238,0.4666 -7.6238,0.4666 0.1696,-3.1859 -3.3908,-2.3329 -3.3908,-2.3329 v 0 0.9331 l -4.3202,-0.4666 -0.1698,1.2442 v 0 c -19.3692,-2.884 -12.6222,-12.905 -12.6222,-12.905 1.3561,-0.1554 1.9469,-2.2527 1.9469,-2.2527 1.6954,-3.0303 4.6593,-0.1556 4.6593,-0.1556 9.7787,-0.7524 7.6184,-14.1407 7.6184,-14.1407 -2.6433,-8.5632 -0.7294,-12.8866 0.9751,-14.3081 -3.5274,0 -5.0494,6.832 -5.0494,6.832 -1.2687,1.4749 0.7929,16.1479 0.7929,16.1479 v 0 l -1.6243,0.803 v 0 c -0.1695,-3.0308 -1.356,-10.3362 -1.356,-10.3362 -1.1869,-7.3857 1.1865,-8.5496 1.1865,-8.5496 -3.6422,0.7775 -8.3602,1.9349 -10.6752,0.9332 -4.8291,-1.3196 -3.9813,-6.7638 -3.9813,-6.7638 6.3547,7.9277 12.4526,1.8221 12.4526,1.8221 -7.3723,-0.7778 -4.9986,-5.0074 -4.9986,-5.0074 4.443,0.6089 2.8752,-0.2208 3.6082,-1.7314 2.065,-3.6978 7.4021,0.1281 7.4021,-1.5434 0,0 0.4487,-1.2359 -0.4983,-2.3701 -14.6566,-2.1776 -12.3372,-6.9942 -12.3372,-6.9942 0.6783,-2.4083 1.4879,0.4425 1.4879,0.4425 0.638,3.0943 11.2733,3.5212 11.2733,3.5212 v 0 l 0.3391,-2.0222 v 0 c 0,-4.4008 -9.2883,-3.1859 -9.2883,-3.1859 v 0 l 0.678,-1.5557 v 0 c -7.6235,-3.6524 -8.0504,-15.9355 -8.0504,-15.9355 -3.2213,-4.5108 2.204,-2.2527 2.204,-2.2527 0,14.1869 6.4097,15.158 6.4097,15.158 -7.4543,-8.5499 -1.5806,-15.9358 -1.5806,-15.9358 -1.6112,13.3276 11.5288,14.6086 11.5288,14.6086 v 0 l 4.4844,-3.9107 v 0 c -11.9747,0 -12.8795,-5.0232 -12.8795,-5.0232 -2.0344,-7.1499 4.4901,-9.6384 4.4901,-9.6384 0.1695,-6.2972 -3.6423,-5.5193 -3.6423,-5.5193 -4.9986,-0.311 -7.7933,-1.7861 -7.7933,-1.7861 -2.855,-1.3145 -5.3268,-2.9835 -7.2079,-4.5533 -12.632,-10.7654 -4.7761,-25.9489 -4.7761,-25.9489 -2.9642,22.1524 11.1283,25.5994 11.1283,25.5994 8.8503,2.7941 12.1643,-1.0117 12.1643,-1.0117 4.89,-6.698 0.5899,-10.3782 -0.904,-10.2495 -4.7047,0.4254 -1.0675,4.2896 -1.0675,4.2896 1.5426,3.778 -0.6934,4.9391 -0.9876,5.2356 -0.5403,0.6392 -14.1905,2.5736 -18.0474,-11.5052 -3.5606,-13.758 5.8462,-15.3885 5.8462,-15.3885 4.6596,-1.4751 2.3737,-9.483 2.3737,-9.483 1.8647,-13.136 9.6583,-8.3191 9.6583,-8.3191 6.1851,5.3637 11.8621,-2.8752 11.8621,-2.8752 0.1695,-8.5496 10.6753,-7.0747 10.6753,-7.0747 0,0 10.5449,-1.4749 10.7144,7.0747 0,0 5.6769,8.2389 11.8624,2.8752 0,0 7.793,-4.8169 9.6579,8.3191 0,0 -2.2858,8.0079 2.3737,9.483 0,0 9.4068,1.6305 5.8462,15.3885 -3.8568,14.0788 -17.507,12.1444 -18.0473,11.5052 -0.2943,-0.2965 -2.5299,-1.4576 -0.9876,-5.2356 0,0 3.6371,-3.8642 -1.0675,-4.2896 -1.4939,-0.1287 -5.7941,3.5515 -0.904,10.2495 0,0 3.314,3.8058 12.1643,1.0117 0,0 14.0924,-3.447 11.1283,-25.5994 0,0 7.8559,15.1835 -4.7764,25.9489 -1.8808,1.5698 -4.3526,3.2388 -7.2077,4.5533 0,0 -2.7947,1.4751 -7.7933,1.7861 0,0 -3.8117,-0.7779 -3.6422,5.5193 0,0 6.5245,2.4885 4.4901,9.6384 0,0 -0.9046,5.0232 -12.8795,5.0232 v 0 l 4.4844,3.9107 v 0 c 0,0 13.14,-1.281 11.5288,-14.6086 0,0 5.8736,7.3859 -1.5806,15.9358 0,0 6.4094,-0.9711 6.4094,-15.158 0,0 5.4255,-2.2581 2.2042,2.2527 0,0 -0.4266,12.2831 -8.0504,15.9355 v 0 l 0.6784,1.5557 v 0 c 0,0 -9.2886,-1.2149 -9.2886,3.1859 v 0 l 0.339,2.0222 v 0 c 0,0 10.6353,-0.4269 11.2734,-3.5212 0,0 0.8096,-2.8508 1.4879,-0.4425 0,0 2.3193,4.8166 -12.3375,6.9942 -0.9465,1.1342 -0.4981,2.3701 -0.4981,2.3701 0,1.6715 5.3371,-2.1544 7.4022,1.5434 0.733,1.5106 -0.8349,2.3403 3.6082,1.7314 z m 5.9422,-4.9184 c 0,0 -2.3281,0 -0.7163,1.3967 0,0 2.5968,1.7019 2.149,2.359 0,0 10.0216,-7.3072 1.4326,-15.1872 0,0 -0.4728,-1.8893 0.4226,-2.793 0,0 1.9446,-4.4952 0.5372,-5.2345 0,0 -1.0746,5.2345 -4.989,6.1382 0,0 -4.2477,1.8663 -1.0494,3.5912 0,0 4.6954,-0.9856 6.0384,4.7418 0.1117,3.5626 -2.0344,4.7415 -3.8251,4.9878 z m -16.7519,-22.4878 c -1.5516,-0.9445 -2.0744,-4.498 -9.0739,-2.0256 0,0 3.6617,-7.6595 11.3147,-3.5601 4.4657,2.886 -0.5394,6.6218 -2.2408,5.5857 z m -6.4774,-33.8902 c 0,0 0.2888,-7.6515 10.6251,-17.6703 v 0 l 3.4679,-3.2431 v 0 c 1.5004,-1.5602 7.0237,-1.9179 4.5677,3.4568 -0.3665,2.2026 -16.6385,10.2266 -18.6607,17.4566 z m 13.0252,-24.0859 c 0,0 -15.7935,11.7362 -15.3601,27.5215 0.0811,0.9128 -1.9366,1.1727 -1.9902,0.5304 0,-21.4132 14.4932,-33.5886 14.4932,-33.5886 0,0 4.2342,-3.8137 6.5132,-1.5902 3.4569,2.867 -3.6561,7.1269 -3.6561,7.1269 z m -12.2346,-3.2939 c -1.1557,3.4163 -5.8904,12.5016 -6.7573,27.5216 0.0698,1.2058 -3.7235,1.3357 -3.7235,-2.4886 0,0 0.4011,-22.3157 3.5793,-27.1896 0,0 1.5567,-5.7657 5.6012,-3.6453 1.1446,0.3361 2.456,2.3856 1.3003,5.8019 z m 1.3189,98.6581 c 0,0 1.2067,-4.428 -3.7956,-5.904 -0.3801,-0.0873 -3.469,-0.2304 -2.0361,5.2813 0.7084,1.7688 4.0972,2.6501 4.0972,4.2434 v 0 h 1.1123 z m 23.7198,-94.6499 c 0.254,2.9625 -0.4388,4.4453 -2.4866,1.847 -2.0982,-1.2342 2.6161,-8.8072 -2.9151,-14.5479 0,0 1.815,-2.5084 3.704,2.639 1.2013,3.4353 1.4658,7.3568 1.6977,10.0619 z m -15.8485,-16.5747 c 0,3.4628 -5.8785,3.8709 -7.9183,-0.434 -1.8442,-2.1178 -1.1798,-7.4846 -7.8911,-8.0674 0,0 4.3512,-4.1587 8.9436,5.5743 0,0 1.0667,2.8945 2.0131,1.7365 0,0 0.9465,-0.7237 1.893,0.4343 0,0 2.9597,0.0326 2.9597,0.7563 z m -5.1582,64.2923 c -1.1512,1.1622 -7.3664,0.4476 -9.4289,7.6501 v 0 l -2.2255,0.6409 v 0 c 0,0 -1.2679,-10.6823 7.5237,-15.4196 0,0 5.3802,-1.715 5.3802,3.2275 0,2.348 -0.2883,2.9302 -1.2495,3.9011 z m -50.6237,32.032 c 0,0 2.3281,0 0.7163,1.3967 0,0 -2.5965,1.7019 -2.1489,2.359 0,0 -10.0216,-7.3072 -1.4326,-15.1872 0,0 0.4728,-1.8893 -0.4227,-2.793 0,0 -1.9446,-4.4952 -0.5372,-5.2345 0,0 1.0744,5.2345 4.9893,6.1382 0,0 4.2474,1.8663 1.0491,3.5912 0,0 -4.6953,-0.9856 -6.0384,4.7418 -0.1116,3.5626 2.0342,4.7415 3.8251,4.9878 z m 16.7522,-22.4878 c 1.5514,-0.9445 2.0741,-4.498 9.0737,-2.0256 0,0 -3.6618,-7.6595 -11.3148,-3.5601 -4.4657,2.886 0.5392,6.6218 2.2411,5.5857 z m 6.4772,-33.8902 c 0,0 -0.2889,-7.6515 -10.6254,-17.6703 v 0 l -3.4674,-3.2431 v 0 c -1.5006,-1.5602 -7.0239,-1.9179 -4.568,3.4568 0.3665,2.2026 16.6385,10.2266 18.6608,17.4566 z m -13.0252,-24.0859 c 0,0 15.7935,11.7362 15.3601,27.5215 -0.0811,0.9128 1.9363,1.1727 1.9902,0.5304 0,-21.4132 -14.4933,-33.5886 -14.4933,-33.5886 0,0 -4.2341,-3.8137 -6.5132,-1.5902 -3.4568,2.867 3.6562,7.1269 3.6562,7.1269 z m 12.2346,-3.2939 c 1.1557,3.4163 5.8904,12.5016 6.7572,27.5216 -0.0697,1.2058 3.7236,1.3357 3.7236,-2.4886 0,0 -0.4011,-22.3157 -3.579,-27.1896 0,0 -1.5568,-5.7657 -5.6016,-3.6453 -1.1446,0.3361 -2.4559,2.3856 -1.3002,5.8019 z m -1.319,98.6581 c 0,0 -1.2067,-4.428 3.7956,-5.904 0.3801,-0.0873 3.4691,-0.2304 2.0361,5.2813 -0.7083,1.7688 -4.0972,2.6501 -4.0972,4.2434 v 0 H 284.792 Z M 260.4501,316.963 c -0.254,2.9625 0.4388,4.4453 2.4865,1.847 2.0982,-1.2342 -2.6161,-8.8072 2.9152,-14.5479 0,0 -1.8148,-2.5084 -3.7041,2.639 -1.2013,3.4353 -1.4657,7.3568 -1.6976,10.0619 z m 15.8485,-16.5747 c 0,3.4628 5.8782,3.8709 7.918,-0.434 1.8445,-2.1178 1.1801,-7.4846 7.8914,-8.0674 0,0 -4.3512,-4.1587 -8.9436,5.5743 0,0 -1.0667,2.8945 -2.0132,1.7365 0,0 -0.9465,-0.7237 -1.893,0.4343 0,0 -2.9596,0.0326 -2.9596,0.7563 z m 5.1582,64.2923 c 1.1509,1.1622 7.3661,0.4476 9.4292,7.6501 v 0 l 2.2254,0.6409 v 0 c 0,0 1.2677,-10.6823 -7.524,-15.4196 0,0 -5.3801,-1.715 -5.3801,3.2275 0,2.348 0.2883,2.9302 1.2495,3.9011 z m -20.5274,-34.5572 c 0.8002,-1.4584 2.865,-4.8161 7.7522,0.1273 0,0 2.0041,3.3576 4.7789,3.7329 0,0 8.441,-0.0433 10.1053,6.0069 0,0 2.0279,7.2641 -1.408,5.8178 0,0 1.1305,-10.9068 -7.8216,-8.1079 -1.3873,0.3813 -3.843,2.0999 -1.9106,4.6789 1.6673,2.2255 2.2587,5.1828 -1.3652,4.7639 -5.0417,-2.1507 -5.6491,-3.604 -7.8667,-6.0041 0,0 -4.3254,-6.8301 -2.2643,-11.0157 z m 73.2716,0 c -0.8002,-1.4584 -2.8649,-4.8161 -7.7519,0.1273 0,0 -2.0043,3.3576 -4.7792,3.7329 0,0 -8.441,-0.0433 -10.1052,6.0069 0,0 -2.0279,7.2641 1.4082,5.8178 0,0 -1.1307,-10.9068 7.8214,-8.1079 1.3873,0.3813 3.8429,2.0999 1.9106,4.6789 -1.6674,2.2255 -2.2587,5.1828 1.3651,4.7639 5.0417,-2.1507 5.6492,-3.604 7.8667,-6.0041 0,0 4.3257,-6.8301 2.2643,-11.0157 z m -61.5954,107.6329 c 0,0 -1.2504,4.2044 7.3202,8.4008 0.339,0.1315 0.4827,0.5938 -0.1769,1.076 0,0.005 -0.2537,0.4822 -2.5342,0.4102 -0.2542,0.0465 -10.4048,-2.2686 -8.9237,-8.8523 0.8609,-2.2646 1.87,-1.8409 2.5713,-3.3551 0.5743,-1.1999 2.5288,-0.33 1.4417,0.6675 0,0 -0.7659,0.6784 0.3016,1.2793 v 0 z m 49.9193,0 c 0,0 1.2506,4.2044 -7.3202,8.4008 -0.3391,0.1315 -0.4828,0.5938 0.1771,1.076 -3e-4,0.005 0.2537,0.4822 2.5339,0.4102 0.2543,0.0465 10.4052,-2.2686 8.9238,-8.8523 -0.8609,-2.2646 -1.8698,-1.8409 -2.5713,-3.3551 -0.5741,-1.1999 -2.5291,-0.33 -1.4417,0.6675 0,0 0.7659,0.6784 -0.3016,1.2793 v 0 z m -12.5706,-37.4927 -1.7756,-0.508 v 0 c 1.9069,-2.156 3.0495,-4.9042 3.0495,-7.8976 0,-6.9219 -6.112,-12.5339 -13.6545,-12.543 -7.5603,0.008 -13.6715,5.6208 -13.6715,12.543 0,2.9934 1.1427,5.7416 3.0495,7.8976 v 0 l -1.7756,0.508 v 0 c -1.8958,-2.3499 -3.0166,-5.2577 -3.0166,-8.4056 0,-7.8046 6.8927,-14.1327 15.3972,-14.1417 8.5232,0.007 15.4145,6.336 15.4145,14.1417 0,3.1479 -1.1211,6.0557 -3.0169,8.4056 z"
       style="fill:#ffffff;fill-rule:evenodd"
       id="path66"
       inkscape:connector-curvature="0" />
    <path
       d="m 275.3002,481.265 v 12.6119 0 c 0,3.9249 -0.1545,7.4962 -4.0666,7.4962 -3.9121,0 -4.0665,-3.5713 -4.0665,-7.4962 v 0 -12.6119 h -3.9895 v 14.542 0 c 0,6.1773 3.5518,9.1693 8.056,9.1693 4.504,0 8.0558,-2.992 8.0558,-9.1693 v 0 -14.542 z"
       style="fill:#ffffff;fill-rule:evenodd"
       id="path68"
       inkscape:connector-curvature="0" />
    <path
       d="m 287.1907,504.4938 v -9.9091 h 7.4639 v -3.8608 h -7.4639 v -5.5981 h 8.0045 v -3.8608 h -11.994 v 23.2288 z"
       style="fill:#ffffff;fill-rule:evenodd"
       id="path70"
       inkscape:connector-curvature="0" />
    <path
       d="m 306.4405,504.9763 c 6.1512,0 8.9308,-5.2441 8.9308,-12.0969 0,-6.8528 -2.7796,-12.0971 -8.9308,-12.0971 -6.1515,0 -8.9314,5.2443 -8.9314,12.0971 0,6.8528 2.7799,12.0969 8.9314,12.0969 z m 0,-20.5906 c 3.9379,0 4.6843,4.5042 4.6843,8.4937 0,3.9895 -0.7464,8.4937 -4.6843,8.4937 -3.9382,0 -4.6845,-4.5042 -4.6845,-8.4937 0,-3.9895 0.7463,-8.4937 4.6845,-8.4937 z"
       style="fill:#ffffff;fill-rule:evenodd"
       id="path72"
       inkscape:connector-curvature="0" />
    <path
       d="m 322.6099,504.4938 v -8.9442 h 2.9086 v 0 c 4.1437,-0.1607 6.4344,-2.9276 6.4344,-7.1424 0,-5.8873 -3.4744,-7.1099 -7.5926,-7.1422 v 0 h -5.7396 v 23.2288 z m 0,-19.368 c 2.2136,0.1287 5.0964,-0.8365 5.0964,3.2814 0,4.1184 -2.8828,3.1532 -5.0964,3.2819 v 0 z"
       style="fill:#ffffff;fill-rule:evenodd"
       id="path74"
       inkscape:connector-curvature="0" />
  </g>
</svg>
